<?xml version="1.0" encoding="UTF-8"?>
<svg version="1.1" xmlns="http://www.w3.org/2000/svg" width="201" height="100">
<path d="M0 0 C66.33 0 132.66 0 201 0 C201 33 201 66 201 100 C134.67 100 68.34 100 0 100 C0 67 0 34 0 0 Z M40.9375 4.4375 C40.01096745 4.45031384 39.08443489 4.46312767 38.12982559 4.4763298 C27.08614568 4.63083514 16.04321195 4.81184567 5 5 C5 24.47 5 43.94 5 64 C14.3121875 64.2784375 14.3121875 64.2784375 23.8125 64.5625 C25.74843018 64.64443604 27.68436035 64.72637207 29.67895508 64.81079102 C37.79291444 65.00983119 43.8460609 65.12271863 50.38671875 59.71484375 C51.94530557 58.16388062 53.48640994 56.59490583 55 55 C56.80517578 53.67871094 56.80517578 53.67871094 58.36328125 52.73046875 C61.26395178 50.82676942 63.66020717 48.6868553 66.1875 46.3125 C69.86811864 42.91079156 73.5968267 39.64375761 77.5 36.5 C83.92861909 31.31085567 90.15575971 25.84424029 96 20 C97.98768394 18.64837492 99.9866347 17.31306433 102 16 C102.92619141 16.97839844 102.92619141 16.97839844 103.87109375 17.9765625 C109.72076398 24.02131247 109.72076398 24.02131247 116.5 28.9375 C121.48779276 32.01168133 124.98844676 36.18928024 128.73828125 40.609375 C130.88953756 42.88324177 132.26764644 43.66817583 135 45 C136.70133409 46.63126267 138.36399675 48.30322397 140 50 C141.99686784 51.9012055 144.02911699 53.76298386 146.0625 55.625 C146.57876953 56.10195313 147.09503906 56.57890625 147.62695312 57.0703125 C149.07121745 58.39498806 150.53503373 59.69825556 152 61 C152.53455811 61.54100342 153.06911621 62.08200684 153.61987305 62.6394043 C157.28275324 64.73328381 160.77707367 64.37039419 164.921875 64.29296875 C165.6845166 64.28994751 166.4471582 64.28692627 167.23291016 64.28381348 C170.07207847 64.26815941 172.91105333 64.2262753 175.75 64.1875 C182.1025 64.125625 188.455 64.06375 195 64 C195 44.53 195 25.06 195 5 C179.27090293 4.800119 163.54191811 4.60790294 147.8125 4.4375 C146.63815022 4.42476673 145.46380043 4.41203346 144.25386429 4.39891434 C109.80827447 4.03078451 75.38210095 3.96060558 40.9375 4.4375 Z M96.125 26.4375 C92.30377745 29.96236746 88.41820599 33.3527443 84.375 36.625 C80.80925717 39.51350822 77.27726202 42.42819966 73.8125 45.4375 C73.07644531 46.07558594 72.34039062 46.71367188 71.58203125 47.37109375 C69.76776339 48.86066476 69.76776339 48.86066476 70 51 C69.01 51.33 68.02 51.66 67 52 C67 52.66 67 53.32 67 54 C66.46503906 54.2165625 65.93007812 54.433125 65.37890625 54.65625 C62.14461662 56.48317222 59.61327122 58.95883813 56.9375 61.5 C48.73765916 69.23042242 48.73765916 69.23042242 43.7121582 69.31884766 C42.85149246 69.33871735 41.99082672 69.35858704 41.1040802 69.37905884 C39.71644722 69.39638565 39.71644722 69.39638565 38.30078125 69.4140625 C37.35059616 69.43342865 36.40041107 69.4527948 35.4214325 69.4727478 C32.3852131 69.53254912 29.34895581 69.57893129 26.3125 69.625 C24.25454072 69.66317926 22.19659742 69.70223096 20.13867188 69.7421875 C15.09253089 69.83989414 10.04656115 69.91945849 5 70 C5 78.25 5 86.5 5 95 C67.7 95 130.4 95 195 95 C195 86.75 195 78.5 195 70 C190.86404297 70.05220703 190.86404297 70.05220703 186.64453125 70.10546875 C183.96705154 70.12888083 181.28958334 70.147088 178.61206055 70.16479492 C176.75458655 70.17985946 174.89714799 70.20031509 173.03979492 70.22631836 C170.36628461 70.26280459 167.69324556 70.2797497 165.01953125 70.29296875 C164.19226028 70.30845261 163.36498932 70.32393646 162.51264954 70.33988953 C155.76030093 70.34185002 152.16489049 68.33801544 147.29296875 63.671875 C146.62330078 63.03636719 145.95363281 62.40085938 145.26367188 61.74609375 C144.57853516 61.08738281 143.89339844 60.42867187 143.1875 59.75 C138.50270646 55.27591009 133.77678536 50.88774711 128.88208008 46.64355469 C126.12117088 44.23254927 123.4340404 41.74586675 120.75 39.25 C119.6355089 38.21865033 118.52092312 37.18740295 117.40625 36.15625 C115.68933604 34.56592878 113.97302915 32.97496428 112.2578125 31.3828125 C110.59059842 29.8363017 108.92055112 28.2929044 107.25 26.75 C106.47994629 26.03312012 106.47994629 26.03312012 105.69433594 25.30175781 C100.87321094 20.85630489 100.84723197 22.04301501 96.125 26.4375 Z " fill="#121212" transform="translate(0,0)"/>
<path d="M0 0 C0.495 0.99 0.495 0.99 1 2 C-0.81586823 3.61815192 -2.64187549 5.21481279 -4.50268555 6.78149414 C-7.02119686 8.93111083 -7.02119686 8.93111083 -9.08398438 11.34570312 C-14.34421081 16.72095554 -18.2346464 18.5086058 -25.64738464 18.85377502 C-30.50200271 18.89683852 -35.33715913 18.75165972 -40.1875 18.5625 C-42.2088948 18.5172848 -44.23038724 18.47623265 -46.25195312 18.43945312 C-51.17237883 18.34867036 -56.07907717 18.17262657 -61 18 C-61 26.25 -61 34.5 -61 43 C-58.00469711 42.97787697 -58.00469711 42.97787697 -54.94888306 42.95530701 C-36.03205832 42.81615801 -17.11519516 42.68363913 1.80171776 42.5570364 C11.5245756 42.49181012 21.24740932 42.42444463 30.97021484 42.35180664 C39.45754769 42.28840442 47.94489844 42.22925664 56.43229449 42.17494446 C60.9145205 42.14612065 65.39671169 42.11535271 69.87888718 42.07946587 C89.62999079 41.92274111 109.26319031 42.05484804 129 43 C128.67 35.08 128.34 27.16 128 19 C125.31488281 19.03480469 122.62976563 19.06960937 119.86328125 19.10546875 C117.25530052 19.12888222 114.64733162 19.14708859 112.03930664 19.16479492 C110.23033383 19.17985755 108.4213974 19.20031177 106.61254883 19.22631836 C104.00853485 19.2628132 101.4050048 19.27975157 98.80078125 19.29296875 C97.99538406 19.30845261 97.18998688 19.32393646 96.36018372 19.33988953 C91.71196548 19.34127464 88.84025244 18.91805334 85 16 C87.40204756 16 89.79508043 16.03411605 92.19604492 16.09179688 C93.03668991 16.11181763 93.8773349 16.13183838 94.74345398 16.15246582 C95.64666885 16.1743396 96.54988373 16.19621338 97.48046875 16.21875 C98.40845779 16.24094604 99.33644684 16.26314209 100.29255676 16.28601074 C103.25754598 16.35700566 106.222523 16.42849695 109.1875 16.5 C111.19726484 16.54820977 113.20703046 16.59638725 115.21679688 16.64453125 C120.14454188 16.76258545 125.07227009 16.88131059 130 17 C130 25.91 130 34.82 130 44 C66.64 44 3.28 44 -62 44 C-62 35.09 -62 26.18 -62 17 C-57.51792969 17.04833984 -57.51792969 17.04833984 -52.9453125 17.09765625 C-50.02261917 17.09823976 -47.10037685 17.08341226 -44.17773438 17.06713867 C-42.16044208 17.06407337 -40.14305705 17.07680868 -38.12597656 17.10620117 C-24.54046866 17.71332607 -24.54046866 17.71332607 -12.9375 11.6875 C-11.60759465 10.13978741 -10.29434811 8.57756948 -9 7 C-7.32335756 5.60678778 -5.61800153 4.24674246 -3.875 2.9375 C-3.12992188 2.36902344 -2.38484375 1.80054688 -1.6171875 1.21484375 C-1.08351562 0.81394531 -0.54984375 0.41304687 0 0 Z " fill="#E8E8E8" transform="translate(66,52)"/>
<path d="M0 0 C28.38 0 56.76 0 86 0 C86 20.13 86 40.26 86 61 C79.255625 61.185625 72.51125 61.37125 65.5625 61.5625 C63.45174072 61.64443604 61.34098145 61.72637207 59.16625977 61.81079102 C45.86573343 62.11149168 45.86573343 62.11149168 40.80224609 59.0949707 C38.56961386 56.84784086 36.82442695 54.57994863 35 52 C33.53495052 50.6485984 32.03855948 49.3295797 30.5 48.0625 C27.10769231 45.21538462 27.10769231 45.21538462 26 43 C30.03402354 44.63882206 32.89127354 47.48651832 36 50.4375 C37.9862797 52.30824115 39.98608467 54.15847145 42 56 C42.54575684 56.54390381 43.09151367 57.08780762 43.65380859 57.64819336 C47.12653624 59.64907713 50.52242766 59.35043112 54.4140625 59.2578125 C55.22491302 59.25119598 56.03576355 59.24457947 56.8711853 59.23776245 C59.45617948 59.21439235 62.04031186 59.17067436 64.625 59.125 C67.21672452 59.08995074 69.80840217 59.05917238 72.40023804 59.03366089 C74.01182862 59.01666721 75.62336815 58.99351157 77.23477173 58.96365356 C82.77862007 58.88931004 82.77862007 58.88931004 85 60 C85 40.53 85 21.06 85 1 C56.95 1 28.9 1 0 1 C0 0.67 0 0.34 0 0 Z " fill="#F1F1F1" transform="translate(110,4)"/>
<path d="M0 0 C0.495 1.485 0.495 1.485 1 3 C0.44570312 3.47050781 -0.10859375 3.94101562 -0.6796875 4.42578125 C-1.40414062 5.04839844 -2.12859375 5.67101562 -2.875 6.3125 C-3.59429687 6.92738281 -4.31359375 7.54226562 -5.0546875 8.17578125 C-7.19179331 10.0412324 -7.19179331 10.0412324 -9 13 C-8.34 13.33 -7.68 13.66 -7 14 C-14.06740266 20.64043716 -21.16955912 27.11432233 -28.7578125 33.16015625 C-30.62682761 34.6937906 -32.33401638 36.25235051 -34 38 C-34.433125 37.505 -34.86625 37.01 -35.3125 36.5 C-36.99740483 34.66781808 -36.99740483 34.66781808 -40 35 C-34.94234697 30.35924678 -29.83785742 25.81749665 -24.5 21.5 C-18.57319539 16.70130877 -12.74370843 11.74370843 -7.34765625 6.34765625 C-5.68467066 4.68467066 -3.94639929 3.31852855 -2 2 C-1.34 2 -0.68 2 0 2 C0 1.34 0 0.68 0 0 Z " fill="#464646" transform="translate(102,14)"/>
<path d="M0 0 C28.38 0 56.76 0 86 0 C86 0.33 86 0.66 86 1 C57.95 1 29.9 1 1 1 C1 20.47 1 39.94 1 60 C3.475 59.505 3.475 59.505 6 59 C8.52669292 59.02106455 11.01808531 59.09555985 13.5390625 59.21875 C15.02205834 59.26553155 16.50513789 59.30971789 17.98828125 59.3515625 C20.30067502 59.41898493 22.60840695 59.4991027 24.91845703 59.62402344 C33.62075444 60.07643074 39.63314847 60.1539527 46.5859375 54.46875 C48.09527631 53.01766835 49.58227857 51.54071657 51 50 C51.99 50.495 51.99 50.495 53 51 C49.42945337 55.70380939 45.60829618 60.15309788 39.67779541 61.54504395 C33.22572857 62.26147201 26.78398377 61.90655302 20.3125 61.625 C13.609375 61.41875 6.90625 61.2125 0 61 C0 40.87 0 20.74 0 0 Z " fill="#EEEEEE" transform="translate(4,4)"/>
<path d="M0 0 C0.495 0.99 0.495 0.99 1 2 C-0.81629426 3.61853156 -2.64269574 5.2152557 -4.50463867 6.78149414 C-7.02152485 8.92860475 -7.02152485 8.92860475 -9.06640625 11.34570312 C-14.36600911 16.79326444 -18.31803953 18.51281767 -25.8009491 18.85377502 C-30.77085118 18.89686961 -35.72177141 18.7515536 -40.6875 18.5625 C-42.75707403 18.51728732 -44.82674334 18.47623472 -46.89648438 18.43945312 C-51.933369 18.34096231 -56.96562055 18.18605799 -62 18 C-62 17.67 -62 17.34 -62 17 C-60.74977051 17.01683838 -59.49954102 17.03367676 -58.21142578 17.05102539 C-53.53303733 17.10200043 -48.85627531 17.0931893 -44.17773438 17.06713867 C-42.16044208 17.06407337 -40.14305705 17.07680868 -38.12597656 17.10620117 C-24.54046866 17.71332607 -24.54046866 17.71332607 -12.9375 11.6875 C-11.60759465 10.13978741 -10.29434811 8.57756948 -9 7 C-7.32335756 5.60678778 -5.61800153 4.24674246 -3.875 2.9375 C-3.12992188 2.36902344 -2.38484375 1.80054688 -1.6171875 1.21484375 C-1.08351562 0.81394531 -0.54984375 0.41304687 0 0 Z " fill="#D2D2D2" transform="translate(66,52)"/>
<path d="M0 0 C0.66 0.33 1.32 0.66 2 1 C-1.56961556 5.65282734 -5.39416801 10.13845941 -11.28118896 11.54504395 C-17.57344547 12.25864208 -23.877078 11.91245369 -30.1875 11.625 C-32.11251395 11.57475547 -34.03765466 11.52914287 -35.96289062 11.48828125 C-40.645097 11.37891817 -45.32112935 11.20687477 -50 11 C-46.2436571 8.51204828 -42.650621 8.8871415 -38.33984375 9.12109375 C-36.80801169 9.17079354 -35.27610537 9.21824559 -33.74414062 9.26367188 C-31.34859548 9.34351524 -28.956957 9.43642139 -26.5637207 9.5690918 C-17.72539713 10.03629573 -11.45274182 10.25889733 -4.37890625 4.47265625 C-2.87957633 3.02169634 -1.40343112 1.54390931 0 0 Z " fill="#FEFFFF" transform="translate(55,54)"/>
<path d="M0 0 C0.66 0.33 1.32 0.66 2 1 C1.52797514 5.24822374 -0.96655518 7.19989709 -4 10 C-4.433125 9.505 -4.86625 9.01 -5.3125 8.5 C-6.99740483 6.66781808 -6.99740483 6.66781808 -10 7 C-8.90081184 6.01524786 -7.7954398 5.03739527 -6.6875 4.0625 C-6.07261719 3.51722656 -5.45773438 2.97195312 -4.82421875 2.41015625 C-3 1 -3 1 0 0 Z " fill="#414141" transform="translate(72,42)"/>
<path d="M0 0 C3.98544997 1.63432121 6.84491594 4.40523933 9.9375 7.3125 C10.44990234 7.78623047 10.96230469 8.25996094 11.49023438 8.74804688 C14.73423949 11.76122062 17.88665126 14.85224961 21 18 C17.33089002 17.431775 15.75521765 16.05620402 13.25 13.375 C9.85492518 9.83342101 6.31882638 6.6029263 2.56640625 3.4453125 C1 2 1 2 0 0 Z " fill="#E9E9E9" transform="translate(136,47)"/>
<path d="M0 0 C0.33 0.66 0.66 1.32 1 2 C-5.18803644 7.51426743 -11.56194377 12.78091398 -18 18 C-18.66 17.67 -19.32 17.34 -20 17 C-13.54915334 11.00734432 -7.06588535 5.26888241 0 0 Z " fill="#E8E2E8" transform="translate(66,52)"/>
<path d="M0 0 C0.66 0.33 1.32 0.66 2 1 C1.62669176 3.72574271 1.20805399 4.80822085 -0.84765625 6.703125 C-1.94400391 7.46882813 -1.94400391 7.46882813 -3.0625 8.25 C-3.79597656 8.77078125 -4.52945313 9.2915625 -5.28515625 9.828125 C-5.85105469 10.21484375 -6.41695312 10.6015625 -7 11 C-7 9.68 -7 8.36 -7 7 C-6.34 6.67 -5.68 6.34 -5 6 C-5 5.01 -5 4.02 -5 3 C-2.625 1.25 -2.625 1.25 0 0 Z " fill="#191919" transform="translate(65,48)"/>
<path d="M0 0 C0.33 0.99 0.66 1.98 1 3 C0.44570312 3.47050781 -0.10859375 3.94101562 -0.6796875 4.42578125 C-1.40414062 5.04839844 -2.12859375 5.67101562 -2.875 6.3125 C-3.59429687 6.92738281 -4.31359375 7.54226562 -5.0546875 8.17578125 C-7.19179331 10.0412324 -7.19179331 10.0412324 -9 13 C-8.34 13.33 -7.68 13.66 -7 14 C-7.99 14 -8.98 14 -10 14 C-10.8125 12.3125 -10.8125 12.3125 -11 10 C-8.34999257 6.89570559 -5.41748277 4.23904044 -2 2 C-1.34 2 -0.68 2 0 2 C0 1.34 0 0.68 0 0 Z " fill="#6E6E6E" transform="translate(102,14)"/>
<path d="M0 0 C0.66 0.33 1.32 0.66 2 1 C-1.63 4.3 -5.26 7.6 -9 11 C-9.99 10.67 -10.98 10.34 -12 10 C-8.04 6.7 -4.08 3.4 0 0 Z " fill="#E8E8E8" transform="translate(55,54)"/>
<path d="M0 0 C0.99 0.33 1.98 0.66 3 1 C1.95125002 3.62187494 1.35068687 4.79371361 -1.125 6.25 C-1.74375 6.4975 -2.3625 6.745 -3 7 C-3.33 6.01 -3.66 5.02 -4 4 C-2.68 2.68 -1.36 1.36 0 0 Z " fill="#353435" transform="translate(90,27)"/>
<path d="M0 0 C4.28477792 2.30718811 7.72291137 4.32966073 11 8 C10.67 8.66 10.34 9.32 10 10 C8.32756598 8.71580959 6.66218553 7.42242815 5 6.125 C3.6078125 5.04605469 3.6078125 5.04605469 2.1875 3.9453125 C1.465625 3.30335937 0.74375 2.66140625 0 2 C0 1.34 0 0.68 0 0 Z " fill="#DDDDDD" transform="translate(114,27)"/>
<path d="" fill="#FFFFFF" transform="translate(0,0)"/>
<path d="" fill="#FFFFFF" transform="translate(0,0)"/>
<path d="" fill="#FFFFFF" transform="translate(0,0)"/>
<path d="" fill="#FFFFFF" transform="translate(0,0)"/>
<path d="" fill="#FFFFFF" transform="translate(0,0)"/>
<path d="" fill="#FFFFFF" transform="translate(0,0)"/>
<path d="" fill="#FFFFFF" transform="translate(0,0)"/>
<path d="" fill="#FFFFFF" transform="translate(0,0)"/>
<path d="" fill="#FFFFFF" transform="translate(0,0)"/>
<path d="" fill="#FFFFFF" transform="translate(0,0)"/>
<path d="" fill="#FFFFFF" transform="translate(0,0)"/>
<path d="" fill="#FFFFFF" transform="translate(0,0)"/>
<path d="" fill="#FFFFFF" transform="translate(0,0)"/>
<path d="" fill="#FFFFFF" transform="translate(0,0)"/>
<path d="" fill="#FFFFFF" transform="translate(0,0)"/>
<path d="" fill="#FFFFFF" transform="translate(0,0)"/>
<path d="" fill="#FFFFFF" transform="translate(0,0)"/>
<path d="" fill="#FFFFFF" transform="translate(0,0)"/>
<path d="" fill="#FFFFFF" transform="translate(0,0)"/>
<path d="" fill="#FFFFFF" transform="translate(0,0)"/>
<path d="" fill="#FFFFFF" transform="translate(0,0)"/>
<path d="" fill="#FFFFFF" transform="translate(0,0)"/>
<path d="" fill="#FFFFFF" transform="translate(0,0)"/>
<path d="" fill="#FFFFFF" transform="translate(0,0)"/>
<path d="" fill="#FFFFFF" transform="translate(0,0)"/>
<path d="" fill="#FFFFFF" transform="translate(0,0)"/>
<path d="" fill="#FFFFFF" transform="translate(0,0)"/>
<path d="" fill="#FFFFFF" transform="translate(0,0)"/>
<path d="" fill="#FFFFFF" transform="translate(0,0)"/>
<path d="" fill="#FFFFFF" transform="translate(0,0)"/>
<path d="" fill="#FFFFFF" transform="translate(0,0)"/>
<path d="" fill="#FFFFFF" transform="translate(0,0)"/>
<path d="" fill="#FFFFFF" transform="translate(0,0)"/>
<path d="" fill="#FFFFFF" transform="translate(0,0)"/>
<path d="" fill="#FEFFFF" transform="translate(0,0)"/>
<path d="" fill="#FFFFFF" transform="translate(0,0)"/>
<path d="" fill="#FFFFFF" transform="translate(0,0)"/>
<path d="" fill="#FFFFFF" transform="translate(0,0)"/>
<path d="" fill="#FFFFFF" transform="translate(0,0)"/>
<path d="" fill="#FFFFFF" transform="translate(0,0)"/>
<path d="" fill="#FFFFFF" transform="translate(0,0)"/>
<path d="" fill="#FFFFFF" transform="translate(0,0)"/>
<path d="" fill="#FFFFFF" transform="translate(0,0)"/>
<path d="" fill="#FFFFFF" transform="translate(0,0)"/>
<path d="" fill="#FFFFFF" transform="translate(0,0)"/>
<path d="" fill="#FFFFFF" transform="translate(0,0)"/>
<path d="" fill="#FFFFFF" transform="translate(0,0)"/>
<path d="" fill="#FFFFFF" transform="translate(0,0)"/>
<path d="" fill="#FFFFFF" transform="translate(0,0)"/>
<path d="" fill="#FFFFFF" transform="translate(0,0)"/>
<path d="" fill="#FFFFFF" transform="translate(0,0)"/>
<path d="" fill="#FFFFFF" transform="translate(0,0)"/>
<path d="" fill="#FFFFFF" transform="translate(0,0)"/>
<path d="" fill="#00FFFF" transform="translate(0,0)"/>
<path d="" fill="#FFFFFF" transform="translate(0,0)"/>
<path d="" fill="#FFFFFF" transform="translate(0,0)"/>
<path d="" fill="#FFFFFF" transform="translate(0,0)"/>
<path d="" fill="#FFFFFF" transform="translate(0,0)"/>
<path d="" fill="#FFFFFF" transform="translate(0,0)"/>
<path d="" fill="#FFFFFF" transform="translate(0,0)"/>
<path d="" fill="#FFFFFF" transform="translate(0,0)"/>
<path d="" fill="#FFFFFF" transform="translate(0,0)"/>
<path d="" fill="#FFFFFF" transform="translate(0,0)"/>
<path d="" fill="#FFFFFF" transform="translate(0,0)"/>
<path d="" fill="#FFFFFF" transform="translate(0,0)"/>
<path d="" fill="#FFFFFF" transform="translate(0,0)"/>
<path d="" fill="#FFFFFF" transform="translate(0,0)"/>
<path d="" fill="#FFFFFF" transform="translate(0,0)"/>
<path d="" fill="#FFFFFF" transform="translate(0,0)"/>
<path d="" fill="#FFFFFF" transform="translate(0,0)"/>
<path d="" fill="#FFFFFF" transform="translate(0,0)"/>
<path d="" fill="#FFFFFF" transform="translate(0,0)"/>
<path d="" fill="#FFFFFF" transform="translate(0,0)"/>
<path d="" fill="#FFFFFF" transform="translate(0,0)"/>
<path d="" fill="#FFFFFF" transform="translate(0,0)"/>
<path d="" fill="#FFFFFF" transform="translate(0,0)"/>
<path d="" fill="#FFFFFF" transform="translate(0,0)"/>
<path d="" fill="#FFFFFF" transform="translate(0,0)"/>
<path d="" fill="#FFFFFF" transform="translate(0,0)"/>
<path d="" fill="#FFFFFF" transform="translate(0,0)"/>
<path d="" fill="#FFFFFF" transform="translate(0,0)"/>
<path d="" fill="#FFFFFF" transform="translate(0,0)"/>
</svg>
