<?xml version="1.0" encoding="UTF-8"?>
<svg version="1.1" xmlns="http://www.w3.org/2000/svg" width="201" height="100">
<path d="M0 0 C66.33 0 132.66 0 201 0 C201 33 201 66 201 100 C134.67 100 68.34 100 0 100 C0 67 0 34 0 0 Z M5 5 C5 34.7 5 64.4 5 95 C49.7927267 96.01513262 94.44550694 96.05131955 139.23847389 95.39171791 C142.46027051 95.34439463 145.68208495 95.29834638 148.90390015 95.25230789 C151.09025488 95.2204515 153.27656961 95.18651315 155.46289062 95.1524353 C168.64582655 94.96335453 181.81037117 95 195 95 C195 65.3 195 35.6 195 5 C165.60606993 5.03957729 165.60606993 5.03957729 136.2121582 5.09008789 C130.52185059 5.09460449 130.52185059 5.09460449 127.85636902 5.09544373 C125.99825298 5.09697739 124.14013792 5.10049049 122.2820282 5.10557556 C119.46444982 5.11289969 116.64693218 5.11390583 113.8293457 5.11352539 C113.00418363 5.1171235 112.17902155 5.12072161 111.32885456 5.12442875 C107.39741173 5.11732709 103.84977451 4.88522597 100 4 C97.30196938 3.90538237 94.63119081 3.86004937 91.93359375 3.8671875 C91.12646942 3.86586823 90.31934509 3.86454895 89.48776245 3.8631897 C86.80430422 3.86125516 84.12094794 3.86767503 81.4375 3.875 C80.05478409 3.87632935 80.05478409 3.87632935 78.64413452 3.87768555 C54.09001685 3.90500672 29.54791254 4.47350322 5 5 Z " fill="#101010" transform="translate(0,0)"/>
<path d="M0 0 C0.67546875 0.28101563 1.3509375 0.56203125 2.046875 0.8515625 C8.27308502 4.51257399 12.98928655 13.45885118 15.375 20.13671875 C18.11936714 32.70935072 15.72498843 43.22977741 9 54 C6.93705751 57.13926032 5.36839887 58.42106303 2 60 C1.28263672 60.73669922 1.28263672 60.73669922 0.55078125 61.48828125 C-4.4303867 66.34397897 -12.36179976 67.30282574 -19 67.5 C-27.46536188 67.24910563 -35.01044298 64.80669852 -42 60 C-49.70985632 51.69207726 -54.97109619 42.35570929 -55.4375 30.875 C-54.97402892 21.53082506 -51.58605564 14.36854074 -46 7 C-45.52820313 6.37480469 -45.05640625 5.74960937 -44.5703125 5.10546875 C-43.44469664 3.68346291 -42.23012257 2.33263278 -41 1 C-40.34 1 -39.68 1 -39 1 C-38.53980469 0.53980469 -38.07960938 0.07960938 -37.60546875 -0.39453125 C-28.30334944 -9.69665056 -9.83531934 -5.6742227 0 0 Z M-44.9375 13.4375 C-49.64741324 20.76222714 -50.20753579 30.06609363 -48.5 38.45703125 C-45.77469681 47.54653677 -41.09867569 52.70350267 -32.9609375 57.546875 C-24.86161044 61.52174263 -16.53561942 61.90413087 -8 59 C-4.75468202 57.27655474 -1.89861466 55.24862228 1 53 C2.3921875 52.071875 2.3921875 52.071875 3.8125 51.125 C9.45419992 45.64449151 11.13782449 38.50556175 11.3125 30.875 C11.25257162 23.25553475 9.25965406 17.6823992 5.3125 11.25 C-1.55430412 4.56878518 -9.39282804 0.53401638 -18.9375 -0.375 C-29.65527743 0.15663579 -38.34301987 5.01121983 -44.9375 13.4375 Z " fill="#464646" transform="translate(119,19)"/>
<path d="M0 0 C47.85761408 -0.04030303 47.85761408 -0.04030303 67.84570312 -0.04882812 C81.67065805 -0.05477177 95.4956069 -0.06177525 109.32055664 -0.07543945 C119.38724349 -0.08538437 129.45392544 -0.09185297 139.52061707 -0.09408849 C144.85436711 -0.09539593 150.18810312 -0.09848384 155.52184868 -0.10573006 C160.53597659 -0.11248725 165.55008459 -0.11461758 170.56421661 -0.11310768 C172.41017579 -0.11338415 174.25613558 -0.11539104 176.10209084 -0.11920547 C178.6109678 -0.12413803 181.11976833 -0.12299992 183.62864685 -0.12025452 C184.36890513 -0.12316736 185.10916342 -0.1260802 185.87185377 -0.12908131 C190.88587879 -0.11412121 190.88587879 -0.11412121 192 1 C192.09522535 3.86095329 192.12552019 6.69760332 192.11352539 9.55883789 C192.11364593 10.47087951 192.11376646 11.38292112 192.11389065 12.32260036 C192.11314133 15.28931005 192.10551223 18.25595773 192.09765625 21.22265625 C192.09618689 23.04846161 192.09516614 24.87426738 192.09460449 26.70007324 C192.08935091 33.48755523 192.07538984 40.27502822 192.0625 47.0625 C192.041875 62.221875 192.02125 77.38125 192 93 C158.01 93 124.02 93 89 93 C89 92.67 89 92.34 89 92 C98.46001336 91.84400368 107.92011161 91.69589617 117.38039207 91.5570364 C121.77628579 91.49228229 126.17211104 91.4251143 130.56787109 91.35180664 C134.8342888 91.28075527 139.10076603 91.21685649 143.36735916 91.15730476 C144.97031977 91.1337913 146.5732489 91.10797828 148.17612839 91.07946587 C162.50908658 90.82733608 176.63128657 91.44735718 191 92 C191 62.3 191 32.6 191 2 C161.60600478 2.3683761 161.60600478 2.3683761 132.2121582 2.74829102 C126.52185059 2.81628418 126.52185059 2.81628418 123.85636902 2.8467865 C121.99823108 2.86905137 120.14011745 2.89340538 118.2820282 2.91941833 C115.46450264 2.95845505 112.64697063 2.99082315 109.8293457 3.02172852 C109.00418363 3.03469499 108.17902155 3.04766146 107.32885456 3.06102085 C103.3608049 3.0975443 99.89604316 2.77920863 96 2 C92.90401352 1.85326565 89.81058194 1.87367341 86.71166992 1.88647461 C85.32069092 1.88625557 85.32069092 1.88625557 83.90161133 1.8860321 C80.84453979 1.88672731 77.78752961 1.89450136 74.73046875 1.90234375 C72.60769179 1.90420932 70.48491439 1.90563257 68.36213684 1.90663147 C62.78084113 1.91044567 57.19957154 1.92026661 51.61828613 1.93133545 C44.9185261 1.9433738 38.21875732 1.94795703 31.51898956 1.95378876 C21.34597489 1.96347893 11.17301749 1.98264319 1 2 C1 31.7 1 61.4 1 92 C17.17 92 33.34 92 50 92 C50 92.33 50 92.66 50 93 C33.5 93 17 93 0 93 C0 62.31 0 31.62 0 0 Z " fill="#B1B1B1" transform="translate(4,3)"/>
<path d="M0 0 C0.33 0 0.66 0 1 0 C0.96519531 1.05058594 0.93039063 2.10117187 0.89453125 3.18359375 C0.65110844 13.60979004 0.79007547 21.79560312 8 30 C8 30.66 8 31.32 8 32 C8.56203125 32.27714844 9.1240625 32.55429688 9.703125 32.83984375 C11.24715171 33.61973479 12.7785771 34.42503954 14.296875 35.25390625 C22.71069798 39.74217169 28.86408447 40.78682802 38.25390625 38.859375 C44.91768701 36.77398131 50.4766256 32.23015165 55 27 C55.495 25.515 55.495 25.515 56 24 C56.66 24 57.32 24 58 24 C58.33 21.69 58.66 19.38 59 17 C59.66 17 60.32 17 61 17 C61 13.04 61 9.08 61 5 C61.99 5.33 62.98 5.66 64 6 C64.93886577 24.17226861 64.93886577 24.17226861 59 32 C58.31067106 33.14473398 57.62299083 34.29046356 56.9375 35.4375 C54.98502152 38.01981024 53.90187736 38.78308369 51 40 C50.56429687 40.46664062 50.12859375 40.93328125 49.6796875 41.4140625 C44.54350176 46.2635774 36.77931195 47.2986343 30 47.5 C20.97182143 47.232425 11.47812052 44.54741445 4.98046875 37.94921875 C0.10565256 31.79994081 0.10565256 31.79994081 -0.4375 27.6875 C-0.293125 26.800625 -0.14875 25.91375 0 25 C0.21081851 21.10540926 0.21081851 21.10540926 -1 18 C-1.09617307 15.48818571 -1.13934762 13.01083378 -1.125 10.5 C-1.12886719 9.82324219 -1.13273437 9.14648438 -1.13671875 8.44921875 C-1.13062416 5.35926233 -0.9844023 2.95320689 0 0 Z " fill="#616161" transform="translate(70,39)"/>
<path d="M0 0 C7.00736488 2.75289335 11.39426453 11.15436361 14.5 17.6875 C17.01095876 24.48250683 16.31815003 31.87697439 16 39 C15.67 39 15.34 39 15 39 C15 34.71 15 30.42 15 26 C14.34 26 13.68 26 13 26 C12.67 29.63 12.34 33.26 12 37 C11.67 37 11.34 37 11 37 C10.96132812 35.76636719 10.96132812 35.76636719 10.921875 34.5078125 C10.47110595 25.63585807 9.52990553 17.45527804 3 11 C3 10.34 3 9.68 3 9 C2.401875 8.731875 1.80375 8.46375 1.1875 8.1875 C-0.97224808 7.01506533 -2.35790256 5.80630718 -4 4 C-2.68 2.68 -1.36 1.36 0 0 Z " fill="#4C4C4C" transform="translate(119,19)"/>
<path d="M0 0 C0.20140476 3.62528568 -0.14223235 5.86501708 -2 9 C-2.66 9 -3.32 9 -4 9 C-4.05437005 11.85442753 -4.09384974 14.70780076 -4.125 17.5625 C-4.14175781 18.36236328 -4.15851563 19.16222656 -4.17578125 19.98632812 C-4.20739672 23.85922268 -4.07855044 27.22747403 -2.90625 30.9375 C-2.45765625 32.4534375 -2.45765625 32.4534375 -2 34 C-3.375 36.4375 -3.375 36.4375 -5 38 C-5.64995297 36.58521865 -6.29478722 35.16808513 -6.9375 33.75 C-7.29714844 32.96109375 -7.65679687 32.1721875 -8.02734375 31.359375 C-11.29024578 23.44454438 -10.64557785 15.23037828 -7.9921875 7.20703125 C-6.44541129 3.76636764 -4.13117225 0 0 0 Z " fill="#343434" transform="translate(74,30)"/>
<path d="M0 0 C-1.98 0.99 -3.96 1.98 -6 3 C-6 4.32 -6 5.64 -6 7 C-8.1875 8.9375 -8.1875 8.9375 -11 11 C-11.886875 11.886875 -12.77375 12.77375 -13.6875 13.6875 C-16 16 -16 16 -18 17 C-18 16.01 -18 15.02 -18 14 C-20.475 15.485 -20.475 15.485 -23 17 C-21.51460715 11.71860321 -17.91327696 7.71945899 -14 4 C-13.34 4 -12.68 4 -12 4 C-11.566875 3.54625 -11.13375 3.0925 -10.6875 2.625 C-7.42972299 -0.5121186 -4.28360753 -1.58652131 0 0 Z " fill="#595959" transform="translate(92,16)"/>
<path d="M0 0 C4.20626034 1.50223584 5.73900021 4.28550034 8 8 C7.01 8 6.02 8 5 8 C4.67 9.32 4.34 10.64 4 12 C3.67 11.01 3.34 10.02 3 9 C1.6846659 8.29848848 0.34882408 7.63474075 -1 7 C-2.75 5.375 -2.75 5.375 -4 4 C-2.68 2.68 -1.36 1.36 0 0 Z " fill="#535353" transform="translate(119,19)"/>
<path d="M0 0 C1.9375 0.8125 1.9375 0.8125 4 2 C4.33 2.99 4.66 3.98 5 5 C4.01 5.33 3.02 5.66 2 6 C1.34 5.67 0.68 5.34 0 5 C0 3.35 0 1.7 0 0 Z " fill="#0D0D0D" transform="translate(70,64)"/>
<path d="" fill="#FFFFFF" transform="translate(0,0)"/>
<path d="" fill="#FFFFFF" transform="translate(0,0)"/>
<path d="" fill="#FFFFFF" transform="translate(0,0)"/>
<path d="" fill="#FFFFFF" transform="translate(0,0)"/>
<path d="" fill="#FFFFFF" transform="translate(0,0)"/>
<path d="" fill="#FFFFFF" transform="translate(0,0)"/>
<path d="" fill="#FFFFFF" transform="translate(0,0)"/>
<path d="" fill="#FFFFFF" transform="translate(0,0)"/>
<path d="" fill="#FFFFFF" transform="translate(0,0)"/>
<path d="" fill="#FFFFFF" transform="translate(0,0)"/>
<path d="" fill="#FFFFFF" transform="translate(0,0)"/>
<path d="" fill="#FFFFFF" transform="translate(0,0)"/>
<path d="" fill="#FFFFFF" transform="translate(0,0)"/>
<path d="" fill="#FFFFFF" transform="translate(0,0)"/>
<path d="" fill="#FFFFFF" transform="translate(0,0)"/>
<path d="" fill="#FFFFFF" transform="translate(0,0)"/>
<path d="" fill="#FFFFFF" transform="translate(0,0)"/>
<path d="" fill="#FFFFFF" transform="translate(0,0)"/>
<path d="" fill="#FFFFFF" transform="translate(0,0)"/>
<path d="" fill="#FFFFFF" transform="translate(0,0)"/>
<path d="" fill="#FFFFFF" transform="translate(0,0)"/>
<path d="" fill="#FFFFFF" transform="translate(0,0)"/>
<path d="" fill="#FFFFFF" transform="translate(0,0)"/>
<path d="" fill="#FFFFFF" transform="translate(0,0)"/>
<path d="" fill="#FFFFFF" transform="translate(0,0)"/>
<path d="" fill="#FFFFFF" transform="translate(0,0)"/>
<path d="" fill="#FFFFFF" transform="translate(0,0)"/>
<path d="" fill="#FFFFFF" transform="translate(0,0)"/>
<path d="" fill="#00FFFF" transform="translate(0,0)"/>
<path d="" fill="#FFFFFF" transform="translate(0,0)"/>
<path d="" fill="#FFFFFF" transform="translate(0,0)"/>
<path d="" fill="#FFFFFF" transform="translate(0,0)"/>
<path d="" fill="#FFFFFF" transform="translate(0,0)"/>
<path d="" fill="#FFFFFF" transform="translate(0,0)"/>
<path d="" fill="#FFFFFF" transform="translate(0,0)"/>
<path d="" fill="#FFFFFF" transform="translate(0,0)"/>
<path d="" fill="#FFFFFF" transform="translate(0,0)"/>
<path d="" fill="#FFFFFF" transform="translate(0,0)"/>
<path d="" fill="#FFFFFF" transform="translate(0,0)"/>
<path d="" fill="#FFFFFF" transform="translate(0,0)"/>
<path d="" fill="#FFFFFF" transform="translate(0,0)"/>
<path d="" fill="#FFFFFF" transform="translate(0,0)"/>
<path d="" fill="#FFFFFF" transform="translate(0,0)"/>
<path d="" fill="#FFFFFF" transform="translate(0,0)"/>
<path d="" fill="#FFFFFF" transform="translate(0,0)"/>
<path d="" fill="#FFFFFF" transform="translate(0,0)"/>
<path d="" fill="#FFFFFF" transform="translate(0,0)"/>
<path d="" fill="#FFFFFF" transform="translate(0,0)"/>
<path d="" fill="#FFFFFF" transform="translate(0,0)"/>
<path d="" fill="#FFFFFF" transform="translate(0,0)"/>
<path d="" fill="#FFFFFF" transform="translate(0,0)"/>
<path d="" fill="#FFFFFF" transform="translate(0,0)"/>
<path d="" fill="#FFFFFF" transform="translate(0,0)"/>
<path d="" fill="#FFFFFF" transform="translate(0,0)"/>
<path d="" fill="#FFFFFF" transform="translate(0,0)"/>
<path d="" fill="#FFFFFF" transform="translate(0,0)"/>
<path d="" fill="#FFFFFF" transform="translate(0,0)"/>
<path d="" fill="#00FFFF" transform="translate(0,0)"/>
<path d="" fill="#FFFFFF" transform="translate(0,0)"/>
<path d="" fill="#FFFFFF" transform="translate(0,0)"/>
<path d="" fill="#FFFFFF" transform="translate(0,0)"/>
</svg>
