<?xml version="1.0" encoding="UTF-8"?>
<svg version="1.1" xmlns="http://www.w3.org/2000/svg" width="100" height="101">
<path d="M0 0 C3.10945153 1.55472577 5.51452538 3.00344587 8.265625 5.046875 C9.07386719 5.645 9.88210938 6.243125 10.71484375 6.859375 C11.96974609 7.79523437 11.96974609 7.79523437 13.25 8.75 C14.07113281 9.3584375 14.89226563 9.966875 15.73828125 10.59375 C20.83947034 14.37719928 25.92292747 18.18426818 31 22 C32.22784809 20.99440206 32.22784809 20.99440206 32.11352539 18.95874023 C32.10828857 18.08419189 32.10305176 17.20964355 32.09765625 16.30859375 C32.09443359 15.36435547 32.09121094 14.42011719 32.08789062 13.44726562 C32.07951172 12.45404297 32.07113281 11.46082031 32.0625 10.4375 C32.05798828 9.44041016 32.05347656 8.44332031 32.04882812 7.41601562 C32.03700007 4.94395151 32.02051849 2.47200482 32 0 C35.65581461 1.31494842 38.48679221 2.9086479 41.57421875 5.2578125 C42.40630859 5.88300781 43.23839844 6.50820312 44.09570312 7.15234375 C45.37864258 8.12880859 45.37864258 8.12880859 46.6875 9.125 C48.39648054 10.42357109 50.1085663 11.7180691 51.82421875 13.0078125 C52.95476685 13.86850342 52.95476685 13.86850342 54.1081543 14.74658203 C55.8996467 16.18410487 55.8996467 16.18410487 58 16 C58 16.99 58 17.98 58 19 C58.57999756 19.27295898 59.15999512 19.54591797 59.75756836 19.82714844 C61.97502707 20.98693849 63.87329231 22.27259253 65.87890625 23.765625 C67.00075317 24.59682861 67.00075317 24.59682861 68.14526367 25.44482422 C68.94295166 26.04053223 69.74063965 26.63624023 70.5625 27.25 C72.25774353 28.50790545 73.95305826 29.76571496 75.6484375 31.0234375 C76.96086426 31.99941895 76.96086426 31.99941895 78.29980469 32.99511719 C82.75277761 36.30142945 87.22075132 39.58733691 91.6875 42.875 C93.29564341 44.05980016 94.90372291 45.24468707 96.51171875 46.4296875 C97.18678467 46.92710449 97.86185059 47.42452148 98.55737305 47.93701172 C99.03343994 48.28779785 99.50950684 48.63858398 100 49 C98.61839226 52.2574919 97.18026874 53.90773314 94.31640625 55.9609375 C93.56375488 56.50733887 92.81110352 57.05374023 92.03564453 57.61669922 C91.21950684 58.19693848 90.40336914 58.77717773 89.5625 59.375 C87.82150491 60.63526517 86.08062253 61.89568606 84.33984375 63.15625 C83.00348877 64.11724609 83.00348877 64.11724609 81.64013672 65.09765625 C77.61584517 67.99734922 73.61867102 70.9333389 69.625 73.875 C68.85865234 74.43856201 68.09230469 75.00212402 67.30273438 75.58276367 C58.48236299 82.08769637 49.77904376 88.74657624 41.08032227 95.4128418 C40.39381592 95.936604 39.70730957 96.46036621 39 97 C38.29222412 97.56307861 37.58444824 98.12615723 36.85522461 98.70629883 C35 100 35 100 33 100 C32.67 92.41 32.34 84.82 32 77 C17.46719488 87.68133359 17.46719488 87.68133359 3.0546875 98.5234375 C1 100 1 100 0 100 C0 67 0 34 0 0 Z M5 9 C5 35.73 5 62.46 5 90 C6.65 89.01 8.3 88.02 10 87 C10 86.34 10 85.68 10 85 C10.56589844 84.90267578 11.13179687 84.80535156 11.71484375 84.70507812 C14.51258144 83.84184453 16.25090436 82.51433047 18.5625 80.71875 C19.43600098 80.04585938 20.30950195 79.37296875 21.20947266 78.6796875 C22.59078369 77.60074219 22.59078369 77.60074219 24 76.5 C25.90343546 75.03097737 27.80707991 73.5622255 29.7109375 72.09375 C30.62584961 71.38476562 31.54076172 70.67578125 32.48339844 69.9453125 C40.86631401 63.46538708 49.41191621 57.20438337 58 51 C56.61479553 47.72467873 55.16818851 46.08917709 52.28125 44.0390625 C51.52271729 43.49209717 50.76418457 42.94513184 49.98266602 42.3815918 C49.16338623 41.8019165 48.34410645 41.22224121 47.5 40.625 C45.76801407 39.37579876 44.03758348 38.12443868 42.30859375 36.87109375 C40.98384033 35.91178955 40.98384033 35.91178955 39.63232422 34.93310547 C35.54560482 31.93193275 31.55151016 28.81676538 27.5625 25.6875 C16.77335532 16.5830683 16.77335532 16.5830683 5 9 Z M38 10 C36.32711539 20.21706495 36.32711539 20.21706495 39.16455078 29.77099609 C42.35161238 33.01424487 46.14860495 35.38239376 50.01025391 37.74560547 C53.28843785 39.81226916 56.31487715 42.19027182 59.375 44.5625 C59.93985107 44.98080078 60.50470215 45.39910156 61.08666992 45.83007812 C62.42860384 46.83867876 63.720192 47.91365135 65 49 C65 49.66 65 50.32 65 51 C63.36893277 52.38200296 61.66535588 53.67860105 59.9375 54.9375 C59.4125293 55.33662598 58.88755859 55.73575195 58.34667969 56.14697266 C55.28600457 58.4500461 52.2019912 60.49136816 48.86328125 62.37109375 C41.51851508 66.45204426 41.51851508 66.45204426 37.34228516 73.34619141 C36.70669646 78.97067226 37.21864105 84.41473043 38 90 C44.06139528 86.77271657 49.33462197 82.83199205 54.75 78.625 C56.61102572 77.19277067 58.47302682 75.76180795 60.3359375 74.33203125 C61.2753418 73.61096191 62.21474609 72.88989258 63.18261719 72.14697266 C67.54576337 68.82205866 71.95499168 65.56126753 76.375 62.3125 C77.14038086 61.74934082 77.90576172 61.18618164 78.69433594 60.60595703 C83.10497419 57.36881824 87.541254 54.17053311 92 51 C87.94508513 46.73041317 83.53778513 43.14925779 78.875 39.5625 C78.09310303 38.95776855 77.31120605 38.35303711 76.50561523 37.72998047 C68.46091482 31.53584118 60.2934065 25.51076789 52.09130859 19.52734375 C50.18865895 18.13778314 48.29060028 16.742269 46.39453125 15.34375 C45.39808594 14.6115625 44.40164062 13.879375 43.375 13.125 C42.53710938 12.50882813 41.69921875 11.89265625 40.8359375 11.2578125 C39.23341946 9.90580213 39.23341946 9.90580213 38 10 Z " fill="#373737" transform="translate(0,0)"/>
<path d="M0 0 C3.98453248 1.59381299 6.28790871 2.75732119 9.57421875 5.2578125 C10.40630859 5.88300781 11.23839844 6.50820312 12.09570312 7.15234375 C13.37864258 8.12880859 13.37864258 8.12880859 14.6875 9.125 C16.39648054 10.42357109 18.1085663 11.7180691 19.82421875 13.0078125 C20.57791748 13.58160645 21.33161621 14.15540039 22.1081543 14.74658203 C23.8996467 16.18410487 23.8996467 16.18410487 26 16 C26 16.99 26 17.98 26 19 C26.57999756 19.27295898 27.15999512 19.54591797 27.75756836 19.82714844 C29.97502707 20.98693849 31.87329231 22.27259253 33.87890625 23.765625 C34.6268042 24.31976074 35.37470215 24.87389648 36.14526367 25.44482422 C36.94295166 26.04053223 37.74063965 26.63624023 38.5625 27.25 C40.25774353 28.50790545 41.95305826 29.76571496 43.6484375 31.0234375 C44.52338867 31.6740918 45.39833984 32.32474609 46.29980469 32.99511719 C50.75277761 36.30142945 55.22075132 39.58733691 59.6875 42.875 C61.29564341 44.05980016 62.90372291 45.24468707 64.51171875 46.4296875 C65.18678467 46.92710449 65.86185059 47.42452148 66.55737305 47.93701172 C67.03343994 48.28779785 67.50950684 48.63858398 68 49 C66.61839226 52.2574919 65.18026874 53.90773314 62.31640625 55.9609375 C61.56375488 56.50733887 60.81110352 57.05374023 60.03564453 57.61669922 C59.21950684 58.19693848 58.40336914 58.77717773 57.5625 59.375 C55.82150491 60.63526517 54.08062253 61.89568606 52.33984375 63.15625 C51.44894043 63.79691406 50.55803711 64.43757813 49.64013672 65.09765625 C45.61584517 67.99734922 41.61867102 70.9333389 37.625 73.875 C36.85865234 74.43856201 36.09230469 75.00212402 35.30273438 75.58276367 C26.48236299 82.08769637 17.77904376 88.74657624 9.08032227 95.4128418 C8.39381592 95.936604 7.70730957 96.46036621 7 97 C5.93833618 97.84461792 5.93833618 97.84461792 4.85522461 98.70629883 C3 100 3 100 1 100 C1 98.02 1 96.04 1 94 C1.99 94 2.98 94 4 94 C4.33 86.41 4.66 78.82 5 71 C5.33 71 5.66 71 6 71 C6.33 76.61 6.66 82.22 7 88 C10.80764687 86.47694125 12.7585667 85.64045963 15.7578125 83.234375 C16.45648438 82.68088379 17.15515625 82.12739258 17.875 81.55712891 C18.6175 80.96077637 19.36 80.36442383 20.125 79.75 C26.65987007 74.57790915 33.26862242 69.53869794 40 64.625 C46.46421617 59.89936287 52.82982507 55.10744558 59 50 C57.37982158 48.66081194 55.75370657 47.3288031 54.125 46 C53.22007813 45.2575 52.31515625 44.515 51.3828125 43.75 C49.2240716 41.80268789 49.2240716 41.80268789 47 42 C45.87948204 40.87074505 44.76259213 39.73775333 43.65966797 38.59130859 C40.08318813 35.1621389 36.01396556 32.29080402 32.0625 29.3125 C31.13477783 28.60931641 30.20705566 27.90613281 29.2512207 27.18164062 C21.92684491 21.65017468 14.50734341 16.27988987 7 11 C6.67 16.61 6.34 22.22 6 28 C5.67 28 5.34 28 5 28 C5 21.4 5 14.8 5 8 C4.34 8 3.68 8 3 8 C2.67 13.61 2.34 19.22 2 25 C1.34 24.67 0.68 24.34 0 24 C0 16.08 0 8.16 0 0 Z " fill="#3B3B3B" transform="translate(32,0)"/>
<path d="M0 0 C0.44988281 0.3403125 0.89976563 0.680625 1.36328125 1.03125 C2.00652344 1.5159375 2.64976563 2.000625 3.3125 2.5 C4.03308594 3.04398438 4.75367188 3.58796875 5.49609375 4.1484375 C7.28295443 5.46976662 9.09012089 6.76381624 10.91015625 8.0390625 C11.88855469 8.72742187 12.86695312 9.41578125 13.875 10.125 C14.80054687 10.76695313 15.72609375 11.40890625 16.6796875 12.0703125 C18.95795138 13.96503027 19.94462553 15.27058327 21 18 C8 28 8 28 -5 38 C-6.0625 36.1875 -6.0625 36.1875 -7 34 C-5.89014746 30.67044238 -5.22791603 30.14115079 -2.5078125 28.1171875 C-1.80269531 27.58996094 -1.09757812 27.06273438 -0.37109375 26.51953125 C0.37011719 25.97683594 1.11132812 25.43414062 1.875 24.875 C2.97521484 24.04935547 2.97521484 24.04935547 4.09765625 23.20703125 C9.58663504 19.13778832 9.58663504 19.13778832 13 18 C9.03432892 13.76995085 4.64804526 10.34612447 0.01171875 6.8671875 C-0.65214844 6.25101563 -1.31601562 5.63484375 -2 5 C-2 4.01 -2 3.02 -2 2 C-1.34 2 -0.68 2 0 2 C0 1.34 0 0.68 0 0 Z " fill="#373735" transform="translate(45,33)"/>
<path d="M0 0 C0.66 0.33 1.32 0.66 2 1 C2 2.32 2 3.64 2 5 C1.34 5 0.68 5 0 5 C0.00785522 5.88522339 0.00785522 5.88522339 0.01586914 6.78833008 C0.03666047 9.46304255 0.04966701 12.13773801 0.0625 14.8125 C0.07087891 15.74126953 0.07925781 16.67003906 0.08789062 17.62695312 C0.09272461 18.9659668 0.09272461 18.9659668 0.09765625 20.33203125 C0.10551147 21.56530151 0.10551147 21.56530151 0.11352539 22.82348633 C0 25 0 25 -1 28 C-1.99 28 -2.98 28 -4 28 C-4.33 22.39 -4.66 16.78 -5 11 C-6.2375 12.010625 -7.475 13.02125 -8.75 14.0625 C-10.859375 15.78515625 -10.859375 15.78515625 -13 17 C-15.265625 16.68359375 -15.265625 16.68359375 -17 16 C-14.75621919 10.31130663 -11.72433785 7.88642092 -6.8125 4.625 C-6.15830078 4.17511719 -5.50410156 3.72523437 -4.83007812 3.26171875 C-3.22814866 2.16258466 -1.6151507 1.07961196 0 0 Z " fill="#2A2A2A" transform="translate(37,66)"/>
<path d="M0 0 C0.33 0 0.66 0 1 0 C1.33 5.61 1.66 11.22 2 17 C5.9132706 15.43469176 8.13199262 14.35471762 11.3125 11.875 C12.00988281 11.33617188 12.70726563 10.79734375 13.42578125 10.2421875 C13.94527344 9.83226563 14.46476562 9.42234375 15 9 C15.66 9.33 16.32 9.66 17 10 C15.79538883 16.60528458 11.62634072 19.1544046 6.5 22.875 C5.71496094 23.46796875 4.92992187 24.0609375 4.12109375 24.671875 C-1.69295435 29 -1.69295435 29 -4 29 C-4 27.02 -4 25.04 -4 23 C-3.01 23 -2.02 23 -1 23 C-0.67 15.41 -0.34 7.82 0 0 Z " fill="#4A4A4A" transform="translate(37,71)"/>
<path d="M0 0 C0.66 0 1.32 0 2 0 C2 6.6 2 13.2 2 20 C4.475 20.99 4.475 20.99 7 22 C8.8125 23.5 8.8125 23.5 10 25 C10 25.66 10 26.32 10 27 C9.34 27 8.68 27 8 27 C7.67 27.99 7.34 28.98 7 30 C2.71 26.7 -1.58 23.4 -6 20 C-5.34 18.68 -4.68 17.36 -4 16 C-3.01 16.33 -2.02 16.66 -1 17 C-1.01160156 15.94039062 -1.02320313 14.88078125 -1.03515625 13.7890625 C-1.04453476 12.40104342 -1.05363489 11.01302245 -1.0625 9.625 C-1.07087891 8.92632812 -1.07925781 8.22765625 -1.08789062 7.5078125 C-1.11328125 2.2265625 -1.11328125 2.2265625 0 0 Z " fill="#333333" transform="translate(35,8)"/>
<path d="M0 0 C0 0.99 0 1.98 0 3 C0.33 3.99 0.66 4.98 1 6 C-5.93 11.445 -5.93 11.445 -13 17 C-13.66 15.68 -14.32 14.36 -15 13 C-13.31676271 7.95028813 -10.31952058 6.51869778 -5.71875 3.984375 C-3.67820023 2.81569649 -1.83491467 1.46793174 0 0 Z " fill="#444544" transform="translate(21,78)"/>
<path d="M0 0 C0.0269501 2.93756119 0.04681474 5.87487555 0.0625 8.8125 C0.07087891 9.64587891 0.07925781 10.47925781 0.08789062 11.33789062 C0.09111328 12.14033203 0.09433594 12.94277344 0.09765625 13.76953125 C0.10289307 14.50792236 0.10812988 15.24631348 0.11352539 16.00708008 C0 18 0 18 -1 21 C-1.66 21 -2.32 21 -3 21 C-3 14.4 -3 7.8 -3 1 C-1 0 -1 0 0 0 Z " fill="#040404" transform="translate(37,73)"/>
<path d="M0 0 C0.66 0 1.32 0 2 0 C2 6.6 2 13.2 2 20 C0.68 19.34 -0.64 18.68 -2 18 C-1.85946128 15.37461716 -1.71281053 12.74982573 -1.5625 10.125 C-1.52318359 9.37863281 -1.48386719 8.63226563 -1.44335938 7.86328125 C-1.11328125 2.2265625 -1.11328125 2.2265625 0 0 Z " fill="#040404" transform="translate(35,8)"/>
<path d="M0 0 C0.66 0.33 1.32 0.66 2 1 C2 4 2 4 1 7 C-1.5625 8.6875 -1.5625 8.6875 -4 10 C-4.33 8.02 -4.66 6.04 -5 4 C-3.35 2.68 -1.7 1.36 0 0 Z " fill="#424242" transform="translate(43,61)"/>
<path d="M0 0 C0 0.99 0 1.98 0 3 C-0.99 3.66 -1.98 4.32 -3 5 C-3.36442233 6.66014616 -3.69972883 8.32706064 -4 10 C-4.99 10.495 -4.99 10.495 -6 11 C-6.75 8.25 -6.75 8.25 -7 5 C-4.81567858 2.11357527 -3.44696406 1.14898802 0 0 Z " fill="#4D4D4D" transform="translate(13,84)"/>
<path d="M0 0 C-1.47692308 5.66153846 -1.47692308 5.66153846 -4.125 7.375 C-5.053125 7.684375 -5.053125 7.684375 -6 8 C-6 4 -6 4 -4.125 1.75 C-2 0 -2 0 0 0 Z " fill="#1E1E1E" transform="translate(16,84)"/>
<path d="" fill="#FFFFFF" transform="translate(0,0)"/>
<path d="" fill="#FFFFFF" transform="translate(0,0)"/>
<path d="" fill="#FFFFFF" transform="translate(0,0)"/>
<path d="" fill="#FFFFFF" transform="translate(0,0)"/>
<path d="" fill="#FFFFFF" transform="translate(0,0)"/>
<path d="" fill="#FFFFFF" transform="translate(0,0)"/>
<path d="" fill="#FFFFFF" transform="translate(0,0)"/>
<path d="" fill="#FFFFFF" transform="translate(0,0)"/>
<path d="" fill="#FFFFFF" transform="translate(0,0)"/>
<path d="" fill="#FFFFFF" transform="translate(0,0)"/>
<path d="" fill="#FFFFFF" transform="translate(0,0)"/>
<path d="" fill="#FFFFFF" transform="translate(0,0)"/>
<path d="" fill="#FFFFFF" transform="translate(0,0)"/>
<path d="" fill="#FFFFFF" transform="translate(0,0)"/>
<path d="" fill="#FFFFFF" transform="translate(0,0)"/>
<path d="" fill="#FFFFFF" transform="translate(0,0)"/>
<path d="" fill="#FFFFFF" transform="translate(0,0)"/>
<path d="" fill="#FFFFFF" transform="translate(0,0)"/>
<path d="" fill="#FFFFFF" transform="translate(0,0)"/>
<path d="" fill="#FFFFFF" transform="translate(0,0)"/>
<path d="" fill="#FFFFFF" transform="translate(0,0)"/>
<path d="" fill="#FFFFFF" transform="translate(0,0)"/>
<path d="" fill="#FFFFFF" transform="translate(0,0)"/>
<path d="" fill="#FFFFFF" transform="translate(0,0)"/>
<path d="" fill="#FFFFFF" transform="translate(0,0)"/>
<path d="" fill="#FFFFFF" transform="translate(0,0)"/>
<path d="" fill="#FFFFFF" transform="translate(0,0)"/>
<path d="" fill="#FFFFFF" transform="translate(0,0)"/>
<path d="" fill="#FFFFFF" transform="translate(0,0)"/>
<path d="" fill="#FFFFFF" transform="translate(0,0)"/>
<path d="" fill="#FFFFFF" transform="translate(0,0)"/>
<path d="" fill="#FFFFFF" transform="translate(0,0)"/>
<path d="" fill="#FFFFFF" transform="translate(0,0)"/>
<path d="" fill="#FFFFFF" transform="translate(0,0)"/>
<path d="" fill="#FFFFFF" transform="translate(0,0)"/>
<path d="" fill="#FFFFFF" transform="translate(0,0)"/>
<path d="" fill="#FFFFFF" transform="translate(0,0)"/>
<path d="" fill="#FFFFFF" transform="translate(0,0)"/>
<path d="" fill="#FFFFFF" transform="translate(0,0)"/>
<path d="" fill="#FFFFFF" transform="translate(0,0)"/>
<path d="" fill="#FFFFFF" transform="translate(0,0)"/>
<path d="" fill="#FFFFFF" transform="translate(0,0)"/>
<path d="" fill="#FFFFFF" transform="translate(0,0)"/>
<path d="" fill="#FFFFFF" transform="translate(0,0)"/>
<path d="" fill="#FFFFFF" transform="translate(0,0)"/>
<path d="" fill="#FFFFFF" transform="translate(0,0)"/>
<path d="" fill="#FFFFFF" transform="translate(0,0)"/>
<path d="" fill="#FFFFFF" transform="translate(0,0)"/>
<path d="" fill="#FFFFFF" transform="translate(0,0)"/>
<path d="" fill="#FFFFFF" transform="translate(0,0)"/>
<path d="" fill="#FFFFFF" transform="translate(0,0)"/>
<path d="" fill="#FFFFFF" transform="translate(0,0)"/>
<path d="" fill="#FFFFFF" transform="translate(0,0)"/>
<path d="" fill="#FFFFFF" transform="translate(0,0)"/>
<path d="" fill="#FFFFFF" transform="translate(0,0)"/>
<path d="" fill="#FFFFFF" transform="translate(0,0)"/>
<path d="" fill="#FF00FF" transform="translate(0,0)"/>
<path d="" fill="#FFFFFF" transform="translate(0,0)"/>
<path d="" fill="#FFFFFF" transform="translate(0,0)"/>
<path d="" fill="#FFFFFF" transform="translate(0,0)"/>
<path d="" fill="#FFFFFF" transform="translate(0,0)"/>
<path d="" fill="#FFFFFF" transform="translate(0,0)"/>
</svg>
